<svg id="Layer_1" xmlns="http://www.w3.org/2000/svg" viewBox="0 0 240 88"><style>.st0{fill:#fff}</style><title>img/logo_stanford</title><g id="Symbols"><g id="img_x2F_logo_x5F_stanford"><path id="logo_stanford" class="st0" d="M110.4 56.5c-1.1.8-2.3.9-3.2.9-2.7 0-3.1-1.9-3.1-3 0-1.4.6-2.6 1.8-3.2.8-.4 1.8-.9 4.5-1.7v7zm6.6.7c-.2.1-.4.2-.7.2-1.2 0-1.4-1.1-1.4-2.6v-2.6c0-1.6.1-3.5.1-5.3 0-2-.1-3.9-.9-5.3-1.2-1.7-3-2.6-5.9-2.6-4.4 0-6.4 2.7-6.9 4.3l-.1.3 1 .6.2-.4s1.1-2.1 3.9-2.1c1.9 0 3.3.9 3.8 2.4.2.8.2 1 .2 2.3v.6c-2.5.8-3.3.9-6.9 2.3-3.5 1.3-3.9 4-3.9 5.5 0 1.3.4 5.5 6 5.5 2.6 0 4.2-1.2 5.1-2.1.4 1.3 1.5 2.1 3.1 2.1 1.9 0 2.9-.9 4-2.3l.2-.3-.7-.8-.2.3zM27.5 21.7l-5.9 5.9v16.1l5 5h2.6c.2-.4.7-1 2.1-1.2 0 0 .6-.2.9-.5h.1l.3-.3c-3.7 1.5-4.2 1.2-4.4 1.1-.2-.1-.3-.3-.3-.4 0-.5.6-.7.9-.8-.2-.1-.3-.3-.3-.5V46c0-.2.2-.4.6-.5.2-.1.5-.2.5-.3l.1-.1c.1-.1.6-.7 1.2-.4.2 0 .3 0 .4-.1 0-.1.1-.3.1-.3h1.2c.1-.3.1-.6.1-.8-.2 0-.3-.1-.3-.1h-.1l-.1-.1s-.1-.1-.2 0l-.2-.3-2.3.2-.1-.4c-.1-.3 0-1.3 2.5-1.9.2-.1.7-.3.8-.7v-.1h-2v-1c-.9.2-1.7.3-2 .3h-.2l-.1-.1s-.3-.4-.3-.8v-.3c.1-.5.6-.9 1.3-1.3.3-.1.9-.4 1.2-.7v-1c-.3.1-.6.1-.9 0h-.1l-.1-.1s-.2-.2-.2-.5c0-.2.1-.5.4-.9.1-.2.3-.6.8-1.1v-2h3.6c.1-.2.2-.4.2-.7-.2 0-.6.1-1.3.5l-.2.1h-.2c-.2-.1-1-.3-1-.9v-.1c0-.5.5-.9.9-1.1-.1-.1-.2-.4-.2-.5 0-.6.7-1 1.4-1.5l.1-.1c.2-.3.2-.3.1-.4-.1-.1-.1-.2-.1-.3 0-.4 0-.9.8-1.5 0-.1-.1-.2-.1-.2 0-.1-.2-.5-.2-.8 0-.1 0-.2.1-.4s.2-.4.7-.4h.1l.3-.6h-8zm113.4 36.8c-.6-.6-.8-1.5-.8-4.9v-6c0-1-.1-2.9-.3-3.7-.7-3.1-3.1-4.8-6.8-4.8-2.8 0-4.9 1.2-5.9 2v-1.6l-.4-.2-.2.1c-.2.1-.9.5-2.2.7-1.6.3-3.1.4-3.7.4h-.8v1.2h.6c.5 0 1.4.1 1.8.7.4.5.4 1.6.4 4.1v5.8c0 3.5 0 5.2-.7 5.9-.6.7-1.5.8-1.8.8h-.4v1h.5c1.8-.2 3.2-.2 4.7-.2 1.3 0 2.5.1 3.9.1l1.1.1v-1h-.4c-.6 0-1.3-.3-1.6-.6-.6-.6-.8-1.5-.8-4.9V42.9c.9-.4 2-.9 3.8-.9 2.7 0 4 1.2 4.3 3.9.2 1.6.2 3.1.2 4.7v4.2c0 1.4-.1 2.9-.7 3.6-.4.4-.9.6-1.7.7h-.4v.9h.5c1.8-.2 3.1-.2 4.6-.2 1.3 0 2.6.1 4.1.1l1 .1v-1h-.4c-.5.1-1.2-.2-1.5-.5zm12.9-27.6c.5-.5 1.4-.7 2.1-.7 1.5 0 2.7.7 3.4 2.4l.1.3h.5l2-2.8-.1-.4-.2-.1c-1.1-.9-3-1.6-5-1.6-4.6 0-7.4 2.1-8.2 6.4-.2 1.3-.3 3.6-.3 5.4-.5.4-1.2.8-2.4 1.3l-.3.1v1.1h2.7v10.1c0 3.5 0 5.2-.7 5.9-.6.7-1.5.8-1.8.8h-.4v1h.5c1.8-.2 3.6-.2 5.1-.2 1.2 0 2.9.1 5.1.2h.5V59h-.4c-.5 0-2.3-.1-2.8-.9-.4-.5-.4-1.8-.4-4.5V42.2h4.6v-2.5h-4.6v-4c-.1-2.6.1-3.9 1-4.8zM76.4 44.2l-3.1-2.1c-2.7-1.8-3.9-2.6-3.9-5 0-1.8.5-4.1 5.1-4.1 1.9 0 3.8.4 4.6 1.2.6.6.9 1.4 1 2.5v.4h1v-5.9l-.4-.1c-.1 0-2.8-.5-6.3-.5-8.6 0-9.2 5.8-9.2 7.5 0 3.6 1.7 5.4 5.1 7.7l2.4 1.6.4.3c2.3 1.6 4 2.7 4 5.4 0 3.2-1.8 4.6-5.7 4.6-1.9 0-3.9-.6-4.7-1.6-.6-.6-.9-1.5-.9-2.5v-.4h-1.2l.1 1c0 .6.1 1.4.1 3.4v1.5l.3.1c2.1.7 4.1 1 6.7 1 3 0 9.9-.8 9.9-8.2-.2-4.3-2.6-6-5.3-7.8zM36.7 21.7c.1.2.2.8.1.8 0 0 .2.2.6.3.3.1.4.3.4.6v.1c0 .3-.3.7-.6.8l.2.1c.6.5 1.1 1.4.6 1.6.7.5 1 1 1 1.2 0 .4-.2.5-.3.6.4.2.9.6 1.1 1.2l.1.2-.1.2c-.1.3-.5.8-1.4.7h-.2c-.3-.1-.6-.1-.7 0 0 0-.1.1-.1.2v.1s0 .1.1.2H41v1.8c.6.4 1.1.8 1.2 1.2v.1c0 .2-.1.4-.2.5-.2.2-.3.2-1 .1v.6s.1 0 .1.1h8.6v-7.3L44 21.8h-7.3zm60.9 18h-7v-4.6h-.9l-.5.8s-1.4 2.6-3.4 4.1c-.6.4-1 .8-2.3 1.3l-.3.1v.8H86v1.4c0 3-.1 5.7-.1 8.9 0 1.2 0 3.2.3 4.2.8 2.5 2.5 3.7 5.7 3.7 3.7 0 5.3-2.1 5.4-2.1l.2-.2-.4-.8-.4.2s-1.1.6-2.5.6c-3 0-3.6-1.8-3.6-5V42.2h7v-2.5zm-47-4.1h-9.4c-.1-.1-.1-.2-.1-.2-.2-.3-.5-.4-.7-.5v-1.4c.7.1 1.4.2 1.5.1.3-.4-.6-.9-1.5-1.4V31h-2.6c-.6-.4-.7-.8-.7-.8-.2-1.4 1.3-.8 1.3-.8.8.1 1-.4 1-.4-.3-.9-1.4-1.2-1.6-1.3-.2-.1-.2-.2-.2-.3.1-.1.7.2.9 0 .5-.5-1.1-1.5-1.1-1.5 1-.1-.1-1.1-.1-1.1-.7-.5-.4-1-.4-1 .7.1.7-.7.6-.7-1.1-.2-.9-.7-.9-.7 0-.4-.2-.7-.2-.7.1-.7-.1-.5-.1-.5-.4 0-.2.4-.2.4-.2.7-.6 1.1-.6 1.1-1 0-.5.9-.5.9l.6-.1-.1.6c-1.4.6-1 1.6-.2 1.7.1.2 0 .3 0 .3-.8 0-.7.4-1.4.7-.5.3-.5.6-.5.8.1.4.6 0 .6 0l-.5.7c-1.7.8-.2 1.3-.2 1.3 1.4-.8 1.9-.5 1.9-.5.2.9-.2 1.5-.7 1.9h-2.7v1.2c-.8.6-1.2 1.4-1.2 1.4-.6.6-.3.9-.3.9.3.1.9-.1 1.4-.4v1.7h-.1c-.4.7-1.7 1.3-1.7 1.3-1.7.7-.9 1.7-.9 1.7.3 0 1.7-.2 2.7-.5v.8H34c-.3.5-.8 1.1-.8 1.1-.2.7-1.1 1-1.1 1-2.3.6-2.2 1.4-2.2 1.4l1.7-.1c.5-.4.9 0 .9 0l.6.1c.3.4-.1 1.7-.1 1.7h-1.2c-.1.4-.9.4-.9.4-.4-.1-.8.3-.8.3-.1.3-.8.6-.8.6-.6.1-.1.4-.1.4.5-.4.5.4.5.4-.1.4-1.3.3-1.3.7 0 .5 4-1.1 4-1.1.5-.4.9-.2.9-.2.4.6-.7 1.3-.7 1.3-.4.5-1.1.8-1.1.8-1.7.3-1.9 1.2-1.9 1.4h-3.3l-5.5-5.5V27.1l6.4-6.3h17.3l6.2 6.3v8.5zm-11.1-3.7h.1-.1zm.1 2.9c-.2-.1-.5-.1-.5-.1l-.4-.4c0-.8-.9-.6-.9-.6l.1-.4c.2 0 .9.1 1.6.2v1.3zm-.7 18.5h1.2v2.9h-2.8v-3.1c0-.6.5-.3.5-.3.4.4 1.1.5 1.1.5zm-3.7-.1c.2.5.3 1.8.3 1.8v1.2h-2.6v-2.4c.6-.4 1-1.2 1-1.2.6-.3 1 .1 1.3.6zm-2.5-15.1c1.3-.5 1.4.2 1.4.2h-1.7v-.1c.2 0 .3-.1.3-.1zm-.1-4.5c.8-.8 1.4 0 1.4 0 1.4.5.4 1 .4 1-.2 0-1.2.5-2 .8v-1.7c.1 0 .2-.1.2-.1zm-.2-1.7h.1-.1zm7.5 8.8c-.8-.4-1.5-1.1-1.8-1.5H45l5.6 5.4v17L45.2 67H26.3l-5.5-5.5v-8.4h7.7c-.9 1.2-1.4 2.9-1.4 2.9-.1.9 1.1.1 1.1.1s.1-.2.2-.3c.4-.7 1.6-.8 1.6-.8.6.1 1.4-.6 1.4-.6.2-.4.6-.4.6-.4h.1v3h3.4l-.1 1.4c0 .6-.1 1.9-.1 2.3-.1 1.1-.4 1.3-.6 1.4-.2.1-.5.2-1 .4-1.2.5-1.1 1.7-1.6 2.1-.7.4-.5.3-1.1.4-.6.1-1 .8-1 .8h12.6c0-.4 0-.7-1.4-1.2s-.7-.7-2.6-1.7c-.7-.3-1-1.5-1.2-2.4-.1-.7-.1-1-.1-1l-.1-2.1V57h3.6v-3.7c.9.1 2.3 1.3 2.3 1.3 1.5.9 1.2-.1 1.2-.1-.4-3.1-2.2-3.4-2.2-3.4-1.1-.3-.4-.9-.4-.9 1.3-1-.2-1.3-.2-1.3-1 .1-2.1-.5-2.1-.5-1.8-1.4-1.2-2.3-1.2-2.3.1-.9 2.3.5 2.3.5.6.5 1.2.1 1.2.1.1-.3.7-.8.7-.8 1.2-.9-1.7-1.2-1.7-1.2-1.4-.9-2.3-1.2-2.7-2.3v-.6s2.2.2 2.4.2c.1 0 .9.1.9-.2-.1-.1-.5-.7-1.4-1.1zm-10.3 8.7l1.8-.4c.1 0 .2.2.2.4h-2zM26.8 20L20 26.8v17.4l5.9 5.9h5.4c-.1.3-.3.6-.3.6L29.6 52c-.1.1-.2.1-.3.2H20v9.5l5.9 5.9h19.7l5.7-5.7V44.1l-6-5.8h-7.4c0-.5.1-1 .1-1 .8-.4 1.6.6 1.6.6.4 0 .9.2.9.2.6-.2 2.3.3 2.3.1.1-1-.3-1.6-.7-2h9.2v-9.7L44.8 20h-18zm11.9 26.4zm2.6-3.9c-.2.1-.9.2-1.2.1-.3 0-.9-.1-1.5-.1.3.6.8.9 1.6 1.4 0 0 .5.3.7.4 1 .1 2.1.3 2.3 1v.2c0 .2-.1.5-.5.8-.3.2-.5.5-.6.6v.1c-.3.2-1 .5-1.7-.1-.6-.4-1.3-.7-1.6-.7v.4c0 .3.2.8 1.1 1.4.1.1 1 .6 1.8.5h.2c.2 0 1 .2 1.1.8.1.4-.1.8-.7 1.3l-.1.1s.1 0 .2.1c.3.1 2.1.6 2.6 3.8.1.3 0 .6-.2.8-.4.4-1.1 0-1.7-.3-.4-.3-.8-.6-1.2-.8V58H38l.1 1.6s-.1.3 0 .9c.2 1.1.6 1.9 1 2.1 1 .5 1.3.8 1.6 1.1.2.2.3.4.9.6 1.4.5 1.7.9 1.7 1.5l.1.6h1.7l5-5V44.9L44.7 40h-5c.1.1.3.2.4.2 1 .4 1.6 1.2 1.6 1.6 0 .3-.1.5-.4.7zm130.6 14.7c-.7.6-1.7.9-2.9.9-5 0-5.3-6.9-5.3-8.2 0-3.6.8-6.1 2.5-7.5.7-.6 1.7-.9 2.9-.9 5 0 5.3 6.9 5.3 8.3 0 3.5-.9 6-2.5 7.4zm-2.7-18.1c-7.7 0-10.4 5.9-10.4 11 0 6.5 3.7 10.4 10 10.4 7.7 0 10.4-5.9 10.4-11 0-6.5-3.7-10.4-10-10.4zm-138 25.4c.2 0 .2 0 .6-.3.1-.1.3-.3.4-.6.2-.6.5-1.2 1.3-1.5.3-.1.3-.2.6-.2.1 0 .3-.1.4-.1.1 0 .2-.1.3-1 0-.2.1-.8.1-1.5v-.8.1-.5h-3.7v-2.7c-.3.2-.8.4-1.2.4-.3 0-1 .2-1.2.6l-.2.4-.1.1c-.3.2-1 .5-1.5.2-.1-.1-.3-.3-.4-.7v-.1c.1-.2.3-1 .8-2h-5.9v7.3l5 5.1h2.7l.3-.7c0-.1.5-.9 1.3-1.1l.4-.4zm181.5-7.8c-1.2.7-2.5.8-3.2.8h-.2c-5.9 0-6.6-5.3-6.6-7.6 0-5.6 1.9-8.3 5.9-8.3 2.5 0 3.7 1 4.1 1.4v13.7zm6.9 1.6h-.2c-.5 0-1.4-.1-1.8-.7-.4-.5-.4-2-.4-4.5V36.4c0-2.7 0-6.3.2-8v-.2l-.3-.2-.2.1c-.4.2-1.2.3-2 .5-1.9.4-4.3.6-4.4.6h-.5l-.1.9h.6c.5 0 1.4.1 1.8.7.4.5.4 1.9.4 4.5v4.3c-.9-.2-2.3-.4-4-.4-4.5 0-8 2.1-9.8 5.8-.7 1.6-1.1 3.5-1.1 5.5 0 6 3.6 9.9 9.2 9.9 2.7 0 4.7-1.2 5.7-1.9v1.7l.5.2.2-.1c.4-.2 1.1-.3 2.1-.5 1.7-.3 3.5-.4 4-.4h.4v-1.1h-.3zm-26.3-18.9c-2.2 0-3.7 1-4.7 1.9v-1.8l-.4-.2-.2.1c-.3.2-1.2.4-2.2.6-1.6.3-3.1.4-3.7.4h-.7v1.2h.6c.5 0 1.4.1 1.8.7.4.5.4 1.6.4 4.1v5.8c0 3.5 0 5.2-.7 5.9-.6.7-1.5.8-1.8.8h-.4v1h.5c1.8-.2 3.5-.2 5.1-.2 1.2 0 2.9.1 5.1.2h.5V59h-.4c-.5 0-2.2-.1-2.8-.9-.4-.5-.4-1.8-.4-4.5V43.3c.6-.4 1.4-.7 2.2-.7 1.9 0 2.8.9 3.3 1.6l.1.2h.8l1.7-3.2v-.6l-.1-.1c-1.1-.7-2.2-1.1-3.6-1.1z"/></g></g></svg>